<?xml version="1.0" encoding="UTF-8"?>
<svg id="Layer_2" data-name="Layer 2" xmlns="http://www.w3.org/2000/svg" viewBox="0 0 1030.08 219.97">
  <defs>
    <style>
      .cls-1 {
        fill: #fff;
      }
    </style>
  </defs>
  <g id="Layer_1-2" data-name="Layer 1">
    <g>
      <path class="cls-1" d="m109.98,0C49.3,0,0,49.3,0,109.98s49.3,109.98,109.98,109.98,109.98-49.3,109.98-109.98S170.67,0,109.98,0Zm0,208.95c-54.63,0-98.96-44.45-98.96-98.96S55.36,11.02,109.98,11.02s98.96,44.45,98.96,98.96-44.33,98.96-98.96,98.96Z"/>
      <path class="cls-1" d="m149.23,39.49c-.36-.24-.85-.36-1.33-.36-1.45,0-2.54,1.09-2.54,2.54v34.4c0,1.21-.97,2.18-2.18,2.18h-66.62c-1.21,0-2.06-.97-2.18-2.18v-34.4c0-.48-.12-.85-.36-1.33-.73-1.21-2.3-1.57-3.51-.85-24.59,15.14-39.49,41.43-39.49,70.5s14.9,55.36,39.73,70.5c.36.24.85.36,1.33.36,1.45,0,2.54-1.09,2.54-2.54v-34.4c0-1.21.97-2.06,2.18-2.18h66.62c1.21,0,2.18.97,2.18,2.18v34.4c0,.48.12.85.36,1.33.73,1.21,2.3,1.57,3.51.85,24.83-15.14,39.73-41.43,39.73-70.5s-15.14-55.36-39.97-70.5h0Zm-87.45,113.62l.36,4.12-2.66-3.27c-20.47-25.8-20.47-62.26,0-88.06l2.3-2.91.36-.36-.36,4.24c-.36,3.39-.48,6.9-.48,10.42v65.29c0,3.51.24,7.03.48,10.54Zm83.58-26.65c0,1.21-.97,2.18-2.18,2.18h-66.62c-1.21,0-2.06-.97-2.18-2.18v-32.95c0-1.21.97-2.18,2.18-2.18h66.62c1.21,0,2.18.97,2.18,2.18v32.95Zm15.02,27.5l-2.66,3.27.36-4.12c.36-3.39.48-6.9.48-10.42v-65.41c0-3.51-.12-7.03-.48-10.42l-.12-1.82-.12-1.94v-.48l2.54,3.27c9.93,12.36,15.38,28.1,15.38,43.97s-5.45,31.74-15.38,44.09Z"/>
      <path class="cls-1" d="m385.92,108.05h0c-.61-.24-1.33-.48-1.33-1.21,0-.48.24-.85.73-1.09.85-.36,21.8-7.87,21.8-32.58,0-27.5-18.53-43.85-49.78-43.85h-75.71v161.59h82.61c24.1,0,50.03-17.08,50.03-44.58s-19.87-35.49-28.34-38.28Zm-66.14-45.67c0-.61.48-1.09,1.09-1.09h30.04c9.93,0,16.72,6.66,16.72,16.59,0,7.75-6.06,16.11-17.44,16.11h-29.31c-.61,0-1.09-.48-1.09-1.09v-30.52Zm31.13,96.66h-30.04c-.61,0-1.09-.48-1.09-1.09v-32.22c0-.61.48-1.09,1.09-1.09h29.31c14.41,0,22.65,6.18,22.65,17.08s-7.63,17.32-21.92,17.32Z"/>
      <path class="cls-1" d="m669.96,93.63l-5.81-1.21c-13.08-2.79-25.8-6.3-25.8-17.56s10.54-16.35,20.96-16.35c12.23,0,24.35,5.45,33.55,14.9l23.98-23.74c-10.3-11.39-28.59-24.47-58.14-24.47-35.61,0-59.6,20.23-59.6,50.39,0,31.86,25.07,43.85,46.15,48.33l5.69,1.21c20.47,4.36,30.16,7.63,30.16,19.26,0,10.42-9.33,17.32-23.14,17.32-16.23,0-30.65-7.15-41.55-20.59l-24.59,24.1c13.08,15.5,30.4,29.56,66.62,29.56,30.89,0,62.26-17.93,62.26-52.33-.12-35.25-24.1-43.24-50.75-48.81h0Z"/>
      <path class="cls-1" d="m989.14,29.31v59.11c0,.61-.48,1.09-1.09,1.09h-49.66c-.61,0-1.09-.48-1.09-1.09V29.31h-40.7v161.59h40.7v-63.47c0-.61.48-1.09,1.09-1.09h49.66c.61,0,1.09.48,1.09,1.09v63.47h40.94V29.31h-40.94Z"/>
      <path class="cls-1" d="m814.71,157.83c-18.29,0-38.03-15.26-38.03-48.81,0-30.65,18.53-46.63,36.82-46.63,13.32,0,22.65,5.57,30.04,17.93l31.25-20.71c-15.99-23.5-35.01-34.16-61.53-34.16-51.96,0-75.22,42.03-75.22,83.58,0,50.51,30.77,85.76,74.74,85.76,32.7,0,47.6-11.99,63.23-34.16l-31.49-21.2c-7.03,11.39-14.66,18.41-29.8,18.41h0Z"/>
      <path class="cls-1" d="m505.71,25.19c-44.45,0-74.25,34.04-74.25,84.79s29.8,84.79,74.25,84.79,74.25-34.04,74.25-84.79-29.8-84.79-74.25-84.79Zm0,132.64c-21.8,0-35.85-18.77-35.85-47.85s14.05-47.6,35.85-47.6,36.1,18.65,36.1,47.6-14.17,47.85-36.1,47.85Z"/>
    </g>
  </g>
</svg>