<?xml version="1.0" encoding="UTF-8"?>
<svg id="Layer_2" data-name="Layer 2" xmlns="http://www.w3.org/2000/svg" viewBox="0 0 41.69 41.66">
  <defs>
    <style>
      .cls-1 {
        fill: #fff;
      }
    </style>
  </defs>
  <g id="Layer_1-2" data-name="Layer 1">
    <path class="cls-1" d="m20.83,41.66C9.27,41.66-.07,32.32,0,20.7.07,8.78,9.93-.2,21.21,0c11.29.2,20.56,9.5,20.48,21.08-.08,11.28-9.43,20.57-20.86,20.58Zm1.99-13.83c0-2.05.01-4.09,0-6.14,0-.41.1-.57.54-.55.89.03,1.78,0,2.67.02.41.01.56-.1.58-.53.07-1.13.17-2.26.31-3.39.06-.5-.1-.57-.54-.56-1.03.03-2.07,0-3.1,0-.22,0-.46.05-.46-.3.02-.93-.02-1.87.04-2.79.04-.66.36-.9,1.05-.92.85-.02,1.7-.02,2.55,0,.36,0,.5-.09.49-.47-.02-1.24-.02-2.47,0-3.71,0-.32-.06-.48-.43-.47-1.48.03-2.96-.03-4.44.07-2.97.2-4.55,1.9-4.61,4.89-.02,1.07-.03,2.15,0,3.22,0,.41-.13.52-.52.5-.61-.03-1.22.01-1.82-.01-.34-.01-.46.1-.45.45.02,1.22.02,2.43,0,3.65,0,.37.14.44.47.43.57-.02,1.14.03,1.7-.02.51-.04.64.13.63.63-.02,4.03,0,8.07-.02,12.1,0,.45.08.64.59.63,1.4-.04,2.8-.03,4.19,0,.45,0,.59-.11.58-.57-.03-2.05-.01-4.09-.01-6.14Z"/>
  </g>
</svg>