<?xml version="1.0" encoding="UTF-8"?>
<svg id="Layer_2" data-name="Layer 2" xmlns="http://www.w3.org/2000/svg" viewBox="0 0 278.61 300.15">
  <g id="Layer_1-2" data-name="Layer 1">
    <path d="m139.24,300.15c-41.33,0-82.66,0-124,0-10.06,0-15.17-4.95-15.18-14.89C.04,221.43.09,157.59,0,93.76c0-6.27,2.27-10.8,7.61-14.12C48.71,54.01,89.78,28.32,130.84,2.62c5.88-3.68,11.53-3.39,17.34.24,40.35,25.27,80.69,50.56,121.15,75.65,6.5,4.03,9.31,9.09,9.29,16.79-.19,63-.11,126-.12,189,0,10.98-4.87,15.84-15.75,15.85-41.17,0-82.33,0-123.5,0Zm-.02-18.2v.08c37.99,0,75.98,0,113.97,0q7.19,0,7.2-6.92c-.02-55.99-.3-111.98.17-167.96.08-9.26-2.64-14.29-10.59-19.11-35.87-21.74-71.26-44.26-106.79-66.54-2.4-1.51-4.33-2.2-7.15-.43-37.92,23.8-75.91,47.49-113.96,71.08-3.08,1.91-4.09,4.01-4.08,7.59.12,58.65.15,117.31-.04,175.96-.02,5.04,1.23,6.4,6.31,6.37,38.32-.22,76.64-.12,114.97-.12Z"/>
  </g>
</svg>