<?xml version="1.0" encoding="UTF-8"?>
<svg id="Layer_2" data-name="Layer 2" xmlns="http://www.w3.org/2000/svg" viewBox="0 0 41.67 41.66">
  <defs>
    <style>
      .cls-1 {
        fill: #fff;
      }
    </style>
  </defs>
  <g id="Layer_1-2" data-name="Layer 1">
    <g>
      <path class="cls-1" d="m20.85,41.66C9.34,41.69.02,32.37,0,20.84-.02,9.47,9.28.13,20.53,0c11.27-.13,21.05,8.83,21.14,20.59.09,11.73-9.18,21.05-20.82,21.07Zm.55-8.35c1.2.02,2.88-.02,4.56-.08,4.08-.16,6.65-2.63,6.85-6.71.18-3.5.17-7.01,0-10.51-.19-3.76-2.51-6.34-6.02-6.6-3.96-.3-7.94-.29-11.9,0-3.21.24-5.62,2.61-5.88,5.8-.33,4.02-.34,8.06,0,12.08.26,3.19,2.54,5.44,5.72,5.83,2.06.25,4.12.19,6.67.2Z"/>
      <path class="cls-1" d="m20.86,31.13c-1.72.02-3.44.02-5.17-.07-2.67-.15-4.31-1.49-4.54-4.13-.32-3.74-.32-7.5,0-11.23.22-2.64,1.56-3.97,4.23-4.15,3.74-.25,7.5-.29,11.23.04,2.43.22,3.86,1.76,4.01,4.19.23,3.66.23,7.33,0,11-.16,2.56-1.78,4.09-4.35,4.27-.57.04-1.13.08-1.7.09-1.24.01-2.47,0-3.71,0Zm6.18-9.87c-.06-3.51-2.83-6.21-6.33-6.15-3.38.05-6.07,2.89-6.01,6.34.05,3.32,2.93,6.1,6.23,6.01,3.44-.09,6.17-2.86,6.11-6.19Zm1.67-6.41c0-.8-.64-1.43-1.42-1.43-.77,0-1.42.65-1.42,1.44,0,.78.64,1.43,1.43,1.43.78,0,1.42-.65,1.41-1.44Z"/>
      <path class="cls-1" d="m20.87,17.27c2.23,0,4.02,1.78,4.02,4,0,2.21-1.8,4.03-4,4.04-2.24,0-4.07-1.82-4.05-4.05.02-2.24,1.79-3.99,4.03-3.99Z"/>
    </g>
  </g>
</svg>