<?xml version="1.0" encoding="utf-8"?>
<!-- Generator: Adobe Illustrator 27.4.1, SVG Export Plug-In . SVG Version: 6.00 Build 0)  -->
<svg version="1.1" id="Layer_2_00000041996194464109069540000003941195458242705298_"
	 xmlns="http://www.w3.org/2000/svg" xmlns:xlink="http://www.w3.org/1999/xlink" x="0px" y="0px" viewBox="0 0 828.6 269.1"
	 style="enable-background:new 0 0 828.6 269.1;" xml:space="preserve">
<style type="text/css">
	.st0{fill:#0F150F;}
</style>
<g id="Layer_1-2">
	<g>
		<g>
			<path class="st0" d="M305.1,2.1c-0.1,1.7-1.6,2.3-2.7,3.2c-19.2,16.2-38.5,32.4-57.7,48.6c-1.1,0.9-3.1,1.7-2.3,3.3
				c0.7,1.5,2.7,0.8,4.1,0.9c13.2,0.7,25.7,3.5,37,10.7c12.8,8.1,16.8,18.7,11.6,32.9c-17.2,46.7-34.6,93.4-51.9,140
				c-2.7,7.2-5.4,14.3-7.9,21.6c-1,3-2.8,4-5.9,4c-20.3-0.2-40.7-0.3-61-0.2c-4.2,0-4.2-1.4-3-4.7c14.1-37.8,28.1-75.6,42.1-113.3
				c5.4-14.7,11-29.3,16.4-44c4-10.9,0.5-16.9-11.1-18.6c-8.6-1.3-17.3-0.6-26-0.7c-15.2-0.2-30.3,0-45.5-0.2
				c-4.1-0.1-5.7,1.3-7.1,5.1C113.6,146.9,92.6,203,72,259.3c-1.9,5.3-4.2,7.4-10.2,7.2c-18.7-0.5-37.3-0.3-56-0.4
				c-4.5,0-5.9-2.2-4.3-6.6c7.5-20.3,15-40.6,22.4-60.9C47.5,134.2,71,69.8,94.4,5.3c1.4-3.8,3.1-5.1,7.1-5
				c19.8,0.3,39.7,0.4,59.5,0.2c4.5,0,5,1.3,3.5,5.2c-5.7,15.7-11.1,31.4-16.8,47c-1.5,4-0.3,4.3,3.4,4.8
				c13.2,1.8,23.3-2.6,33.1-11.6c16-14.8,33.2-28.3,49.9-42.4c1.8-1.5,3.5-2.8,6.1-2.8c20.8,0.2,41.6,0.3,62.5,0.5
				C303.5,1.3,304.4,1.1,305.1,2.1L305.1,2.1z"/>
			<path class="st0" d="M462,263.2c5-13.7,10-27.4,15-41.1c20-54.2,39.9-108.5,59.9-162.7c1.5-4.1,3-8.1,4.5-12.2
				c3.5-9.4,0-15.5-9.8-17.5c-2-0.4-4-0.5-6-0.5c-14.7-0.1-29.3-0.1-44-0.3c-3.3,0-5,0.8-6.2,4.1c-14.2,39.1-28.5,78.2-42.9,117.3
				c-12.5,33.9-25,67.8-37.5,101.7c-1.7,4.6-1.8,10.9-5.8,13.5c-3.9,2.6-9.7,0.7-14.7,0.7c-16.3,0-32.7-0.1-49-0.1
				c-5.4,0-5.7-0.5-3.8-5.7c15.4-41.9,30.9-83.8,46.3-125.7c12.2-33.3,24.4-66.6,36.6-99.9c2.3-6.2,2.2-6.3-4.4-6.4
				c-17.8-0.1-35.7-0.1-53.5-0.2c-3.7,0-7.4,0.2-10.9,1.1c-9.3,2.3-16.9,6.6-20,16.7c-3.4,10.8-7.5,21.4-11.3,32
				c-0.5,1.6-1.3,3.1-2.2,5.4c-8.9-21.4-27.1-27-46.9-30c-0.3-1.8,1.2-2.3,2.1-3.1c19.1-15.6,38.2-31.2,57.3-46.8
				c1.8-1.5,3.8-2,5.9-2.3c13.8-2,27.6-1.3,41.4-1.3c63.7,0.2,127.3,0.6,191,0.7c4.8,0,7.3,1.2,9.2,5.9
				c15.1,37.2,30.5,74.2,45.7,111.4c3.4,8.3,4.4,6-2.9,12.8c-45.6,42.7-91.2,85.4-136.8,128.1c-1.8,1.6-3.6,3.2-5.4,4.8
				C462.5,263.7,462.3,263.4,462,263.2L462,263.2z"/>
			<path class="st0" d="M828.6,6.1c-4.5,4.3-9,8.6-13.5,12.9C774.8,56.8,734.4,94.6,694,132.4c-3,2.8-3.4,4.9-1.9,8.6
				c16.8,40.7,33.4,81.4,50,122.1c2.5,6.1,2.6,6.1-4.2,6c-12.1-0.1-24.3,0.7-36.3-2.6c-16.2-4.4-27.5-13.8-33.5-29.9
				c-6.5-17.6-14.1-34.9-21.2-52.3c-2.3-5.6-2.3-5.5-6.8-1.3c-29.3,27.5-58.6,54.9-87.8,82.4c-2.1,2-4.3,2.8-7.1,2.8
				c-22.7-0.2-45.3-0.3-68-0.5c-1.4,0-3.4,0.8-4-1c-0.5-1.5,1.5-2.4,2.5-3.4c47.5-44.6,95-89.1,142.6-133.6c3.3-3.1,4.1-5.5,2.3-9.8
				c-15.8-37.8-31.4-75.7-47-113.6c-2.3-5.7-2.4-5.8,3.7-5.7c10.3,0.2,20.7-0.7,31,0.7c17.5,2.3,30.4,10.7,37.2,27.7
				c6.6,16.4,13.9,32.5,20.7,48.8c1.6,3.8,2.8,4.5,6.1,1.4c25.2-23.8,50.5-47.4,75.8-71.1c2.1-2,4.2-3.6,7.3-3.5
				c23.3,0.2,46.7,0.2,70,0.4C826.4,4.9,827.4,4.7,828.6,6.1L828.6,6.1z"/>
		</g>
	</g>
</g>
</svg>
