<?xml version="1.0" encoding="UTF-8"?>
<svg id="Layer_2" data-name="Layer 2" xmlns="http://www.w3.org/2000/svg" viewBox="0 0 828.63 269.06">
  <defs>
    <style>
      .cls-1 {
        fill: #fff;
      }
    </style>
  </defs>
  <g id="Layer_1-2" data-name="Layer 1">
    <g>
      <path class="cls-1" d="m305.06,2.08c-.09,1.68-1.57,2.32-2.66,3.23-19.23,16.2-38.49,32.38-57.7,48.61-1.05.89-3.1,1.66-2.33,3.33.67,1.46,2.7.85,4.15.93,13.17.66,25.66,3.52,37,10.65,12.81,8.06,16.84,18.72,11.6,32.94-17.23,46.71-34.61,93.36-51.93,140.03-2.67,7.18-5.45,14.32-7.93,21.57-1.04,3.04-2.76,3.98-5.89,3.95-20.33-.2-40.66-.31-60.98-.24-4.2.01-4.21-1.43-2.98-4.72,14.09-37.75,28.07-75.55,42.1-113.32,5.45-14.68,10.98-29.33,16.41-44.01,4.02-10.88.53-16.87-11.08-18.59-8.6-1.27-17.3-.59-25.96-.7-15.16-.19-30.33.04-45.49-.23-4.05-.07-5.72,1.34-7.11,5.09-20.69,56.26-41.64,112.44-62.28,168.72-1.94,5.3-4.22,7.42-10.21,7.25-18.65-.55-37.32-.3-55.98-.36q-6.75-.02-4.33-6.63c7.47-20.32,14.98-40.62,22.42-60.95C47.46,134.19,71.03,69.75,94.44,5.26c1.38-3.79,3.09-5.06,7.12-5.01,19.82.29,39.65.35,59.48.24,4.49-.03,4.96,1.31,3.54,5.2-5.7,15.65-11.06,31.42-16.8,47.05-1.47,4.01-.32,4.33,3.45,4.85,13.17,1.81,23.29-2.56,33.05-11.64,15.96-14.84,33.2-28.29,49.87-42.38,1.82-1.54,3.52-2.8,6.13-2.77,20.83.23,41.65.33,62.48.49.78,0,1.68-.17,2.3.77Z"/>
      <path class="cls-1" d="m461.97,263.22c5-13.69,9.96-27.4,15-41.08,19.95-54.24,39.92-108.48,59.87-162.72,1.5-4.06,2.98-8.13,4.47-12.2,3.45-9.43.05-15.55-9.85-17.5-1.95-.39-3.98-.46-5.97-.48-14.66-.1-29.33-.07-43.99-.26-3.27-.04-5.02.83-6.22,4.15-14.19,39.14-28.52,78.24-42.87,117.32-12.46,33.93-24.95,67.85-37.52,101.73-1.73,4.65-1.83,10.86-5.78,13.5-3.91,2.61-9.72.71-14.68.73-16.33.05-32.66-.08-48.99-.15-5.44-.02-5.72-.46-3.78-5.72,15.42-41.89,30.86-83.77,46.26-125.67,12.24-33.3,24.43-66.61,36.62-99.93,2.28-6.22,2.18-6.32-4.44-6.35-17.83-.07-35.66-.1-53.49-.2-3.69-.02-7.36.22-10.91,1.11-9.31,2.33-16.86,6.57-20.02,16.67-3.37,10.8-7.48,21.38-11.29,32.04-.55,1.55-1.26,3.05-2.23,5.39-8.89-21.38-27.12-27-46.92-30.05-.34-1.83,1.22-2.32,2.12-3.06,19.08-15.61,38.21-31.16,57.3-46.76,1.78-1.45,3.75-2,5.94-2.31,13.77-1.95,27.61-1.32,41.43-1.27,63.66.21,127.32.57,190.98.67,4.83,0,7.33,1.23,9.23,5.91,15.08,37.2,30.54,74.25,45.67,111.43,3.37,8.29,4.38,5.96-2.94,12.82-45.58,42.7-91.16,85.42-136.75,128.12-1.75,1.64-3.6,3.18-5.41,4.77-.27-.21-.55-.42-.82-.63Z"/>
      <path class="cls-1" d="m828.63,6.07c-4.48,4.28-8.97,8.64-13.53,12.91-40.34,37.83-80.66,75.67-121.11,113.39-2.95,2.75-3.38,4.92-1.87,8.58,16.77,40.65,33.36,81.37,50.03,122.06,2.49,6.07,2.56,6.12-4.17,6.03-12.14-.15-24.32.69-36.27-2.56-16.21-4.41-27.52-13.75-33.52-29.91-6.55-17.64-14.06-34.91-21.22-52.32-2.28-5.55-2.34-5.49-6.82-1.28-29.27,27.47-58.57,54.92-87.81,82.43-2.09,1.97-4.26,2.79-7.14,2.76-22.66-.21-45.33-.29-67.99-.46-1.37-.01-3.43.77-3.96-.97-.47-1.55,1.48-2.39,2.52-3.37,47.49-44.56,94.98-89.13,142.58-133.57,3.27-3.05,4.12-5.5,2.31-9.83-15.82-37.8-31.38-75.71-47.02-113.58-2.35-5.68-2.36-5.76,3.65-5.66,10.32.17,20.68-.67,30.96.66,17.53,2.27,30.38,10.72,37.24,27.66,6.62,16.36,13.86,32.48,20.67,48.77,1.59,3.8,2.81,4.5,6.13,1.36,25.18-23.8,50.52-47.42,75.78-71.13,2.12-1.99,4.15-3.55,7.35-3.52,23.33.2,46.66.25,69.99.37.96,0,2.03-.21,3.2,1.18Z"/>
    </g>
  </g>
</svg>