<?xml version="1.0" encoding="UTF-8"?>
<svg id="Layer_2" data-name="Layer 2" xmlns="http://www.w3.org/2000/svg" viewBox="0 0 717.03 93.6">
  <defs>
    <style>
      .cls-1 {
        fill: #f2f2f2;
      }
    </style>
  </defs>
  <g id="Layer_1-2" data-name="Layer 1">
    <g>
      <path class="cls-1" d="m140.53,93.59h102.34v-17.58h-89.27c-1.43,0-2.6-1.19-2.6-2.65v-15.12c0-1.46,1.16-2.65,2.6-2.65h89.27v-17.59h-89.27c-1.43,0-2.6-1.19-2.6-2.65v-15.11c0-1.46,1.16-2.65,2.6-2.65h89.27V0h-102.34c-4.92,0-8.92,4.09-8.92,9.11v75.37c0,5.02,4,9.11,8.92,9.11"/>
      <path class="cls-1" d="m287.01,93.6l47.65-79.13c.93-1.65,3.48-1.66,4.42,0l21.02,34.76c1.09,1.68-.24,4.11-2.21,4.04h-24.02c-1.29,0-2.51.52-3.42,1.45-.91.93-1.41,2.18-1.41,3.5,0,0,.03,9.26.02,12.63h42.54c.9,0,1.74.48,2.21,1.26l12.93,21.49h23.78L354.09,0h-34.3l-56.42,93.59h23.64Z"/>
      <path class="cls-1" d="m593.53,93.6l47.65-79.13c.47-.78,1.31-1.26,2.21-1.26h0c.9,0,1.74.47,2.21,1.26l21.02,34.76c.49.82.52,1.84.06,2.68-.46.84-1.33,1.36-2.27,1.36h-24.02c-1.29,0-2.51.52-3.43,1.45-.91.94-1.41,2.18-1.41,3.5v2.38c.02,3.56.03,6.96.02,10.25h42.54c.9,0,1.74.48,2.21,1.26l12.93,21.49h23.78L660.62,0h-34.3l-56.42,93.59h23.64Z"/>
      <path class="cls-1" d="m528.52,59.83c1.14,1.5,1.72,3.51,1.72,5.97.18,6.06-4.48,9.92-9.89,10.2-.08.03-67.13-.01-67.25,0-1.83-.08-3.53-.52-4.88-1.24-2.41-1.15-4.39-3.4-4.93-6.25h-20.03c.16,16.97,10.23,25.3,27.09,25.07h77.29c5.43-.11,15.01-3.56,18.61-10.9,2.57-5.23,3.5-11.48,3.42-16.82.13-7.55-1.07-27.86-22.03-27.86h-74.54c-1.83-.08-3.54-.53-4.89-1.27-3.35-1.68-5.23-4.78-5.17-9.01-.06-4.25,1.82-7.19,5.17-8.87,1.33-.72,2.92-1.15,4.73-1.26.01-.02,67.18,0,67.24,0,4.43.2,8.77,2.8,9.8,7.49h20.29c-.27-17-10.14-25.28-27.09-25.07,0,0-73.87,0-73.87,0-4.68,0-7.43.53-10.51,1.56-12.2,3.72-15.69,14.67-15.44,26.16-.13,7.63,1.28,17.03,7.87,22.22,5.39,4.12,10.3,5.67,18.08,5.64.17,0,70.88-.01,71.03,0,3.35.26,6.06,1.45,8.17,4.23"/>
      <path class="cls-1" d="m64,53.17h27.63c4.59,0,8.78-1.91,11.79-4.99,3.01-3.08,4.88-7.32,4.88-12.01v-19.17h-.02C108.27,7.61,100.82,0,91.62,0H0v17.02h.02v76.56h18.73V17.02h61.68c5.07.16,9.1,4.39,9.1,9.59,0,2.66-1.03,5.03-2.75,6.75-1.65,1.73-3.93,2.78-6.5,2.81h-28.17c-8.33,0-13.53,9.22-9.35,16.58l.24.42,22.85,40.41h8.55v.02h33.89v-17.02h-31.5c-1.49,0-2.3-.81-3.05-2.14l-11.17-18.74c-.63-1.12.16-2.52,1.43-2.52"/>
    </g>
  </g>
</svg>