<?xml version="1.0" encoding="UTF-8"?>
<svg id="Layer_2" data-name="Layer 2" xmlns="http://www.w3.org/2000/svg" viewBox="0 0 1077.05 93.59">
  <defs>
    <style>
      .cls-1 {
        fill: #f2f2f2;
      }
    </style>
  </defs>
  <g id="Layer_1-2" data-name="Layer 1">
    <path class="cls-1" d="m64,53.16h27.63c4.59,0,8.78-1.91,11.79-4.99,3.01-3.08,4.88-7.32,4.88-12.01v-19.17h-.02c0-9.39-7.46-17-16.66-17H0v17.02h.02v76.56h18.73V17.02h61.68c5.07.16,9.1,4.39,9.1,9.59,0,2.66-1.03,5.03-2.75,6.75-1.65,1.73-3.93,2.78-6.5,2.81h-28.17c-8.33,0-13.53,9.22-9.35,16.58l.24.42,22.85,40.41h8.55v.02h1002.67v-17.02H76.78c-1.49,0-2.3-.81-3.05-2.14l-11.17-18.74c-.63-1.12.16-2.52,1.43-2.52"/>
  </g>
</svg>