<?xml version="1.0" encoding="UTF-8"?>
<svg id="Layer_2" data-name="Layer 2" xmlns="http://www.w3.org/2000/svg" viewBox="0 0 997.37 171.08">
  <defs>
    <style>
      .cls-1 {
        fill: #fff;
      }

      .cls-2 {
        fill: #00aeef;
      }

      .cls-3 {
        fill: #ed1d24;
      }

      .cls-4 {
        fill: #004990;
      }
    </style>
  </defs>
  <g id="Layer_1-2" data-name="Layer 1">
    <g>
      <polygon class="cls-1" points="219.79 0 172.24 71.02 125.24 0 0 0 116.55 171.07 227.95 171.07 345.03 0 219.79 0"/>
      <polygon class="cls-4" points="120.34 162.89 223.14 162.89 171.74 85.62 120.34 162.89"/>
      <polygon class="cls-3" points="120.45 7.99 14.91 7.99 120.34 162.89 171.74 85.62 120.45 7.99"/>
      <polygon class="cls-2" points="223.48 7.99 171.74 85.62 223.14 162.89 329.02 7.99 223.48 7.99"/>
      <path class="cls-1" d="m243.43,163.56v1.8h2.2v5.71h2.19v-5.71h2.24v-1.8h-6.64Zm13.14,0l-1.35,4.32-1.37-4.32h-3.12v7.52h2v-5.43l1.63,5.43h1.7l1.63-5.44v5.44h2v-7.52h-3.12Z"/>
      <path class="cls-1" d="m981.11,163.56v1.8h2.21v5.71h2.19v-5.71h2.24v-1.8h-6.64Zm13.14,0l-1.35,4.32-1.37-4.32h-3.12v7.52h2v-5.43l1.63,5.43h1.69l1.64-5.44v5.44h2v-7.52h-3.12Z"/>
      <polygon class="cls-1" points="408.82 66.1 381.89 134.73 354.61 66.1 321.67 66.1 365.62 170.88 396.76 170.88 440.33 66.1 408.82 66.1"/>
      <polygon class="cls-1" points="515.32 65.31 515.28 171.01 544.4 171.01 544.42 65.31 515.32 65.31"/>
      <polygon class="cls-1" points="730.27 65.31 730.25 171.01 759.37 171.01 759.38 65.31 730.27 65.31"/>
      <polygon class="cls-1" points="575.88 171.01 611.29 171.01 638.7 88.5 610.34 88.5 594.82 143.17 579.05 88.46 548.3 88.42 575.88 171.01"/>
      <polygon class="cls-1" points="768.57 88.5 768.53 171.08 797.69 171.08 797.69 88.5 768.57 88.5"/>
      <rect class="cls-1" x="768.53" y="65.31" width="29.15" height="15.55"/>
      <path class="cls-1" d="m863.81,88.5h-56.83v82.51h29.07v-65.44h21.85v65.44h29.14v-61.5c0-16.5-10.46-21.01-23.23-21.01"/>
      <path class="cls-1" d="m699.82,171.01c14.21,0,21.27-6.78,21.27-19.48,0-11.18.01-42.74.01-42.74,0-16.87-11.17-20.28-21.53-20.28h-38.01c-10.38,0-21.56,3.41-21.56,20.28,0,0,.02,31.56.02,42.74,0,12.7,7.06,19.48,21.29,19.48h38.51Zm-30.43-17.13v-48.38s22.36,0,22.36,0v48.38h-22.36Z"/>
      <path class="cls-1" d="m505.78,109.58c0-16.56-10.56-21.11-24.78-21.11h-41.62l-6.48,15.57h43.87v11.73h-29.4c-11.99,0-23.16,3.99-23.16,21.11,0,9.98.02,16.02.02,16.02,0,12.34,7.34,18.11,22.44,18.11,11.57,0,59.12-.03,59.12-.03v-61.4Zm-29.04,44.3h-24.66v-22.56h24.68l-.02,22.56Z"/>
      <path class="cls-1" d="m895.63,110.67v39.24c0,7.57,2.63,12.07,4.4,14.1,3.78,4.35,9.79,7,20.59,7h46.36l4.14-15.53h-46.49v-13.32h30.81c12.82,0,20.72-4.78,20.72-19.17,0-9.97-.02-15.36-.02-15.36,0-14.98-9.9-19.15-22.89-19.15-7.59,0-19.66.03-32.91.03-14.55,0-24.74,6.28-24.74,22.17m29.04-5.06h24.65v20.99h-24.67l.02-20.99Z"/>
    </g>
  </g>
</svg>