<?xml version="1.0" encoding="UTF-8"?>
<svg id="Layer_2" data-name="Layer 2" xmlns="http://www.w3.org/2000/svg" viewBox="0 0 716.39 300.84">
  <defs>
    <style>
      .cls-1 {
        fill: #0f4777;
      }

      .cls-2 {
        fill: #00a1ce;
      }

      .cls-3 {
        fill: #606161;
      }
    </style>
  </defs>
  <g id="Layer_1-2" data-name="Layer 1">
    <g>
      <path class="cls-2" d="m132.9,237.31l24.07-56.95h-30.08c-34.08,0-61.7-27.62-61.7-61.7s27.62-61.7,61.7-61.7h82.24L233.21,0h-117C52.03,0,0,52.03,0,116.21v4.89c0,64.18,52.03,116.21,116.21,116.21h16.69Z"/>
      <path class="cls-2" d="m264.44,0h62.94l100.31,237.31h-70.01l-17.16-42.08h-90.88l-16.83,42.08h-68.67L264.44,0Zm57.22,144.74l-26.25-66.98-26.59,66.98h52.85Z"/>
      <polygon class="cls-1" points="640.09 75.64 602.49 75.64 602.49 38.27 640.09 38.27 640.09 0 678.79 0 678.79 38.27 716.39 38.27 716.39 75.64 678.79 75.64 678.79 113.91 640.09 113.91 640.09 75.64"/>
      <path class="cls-3" d="m15,300.84c-1.91,0-3.7-.34-5.38-1.03-1.68-.68-3.13-1.65-4.37-2.88s-2.21-2.69-2.94-4.38c-.72-1.69-1.08-3.53-1.08-5.51v-.08c0-1.93.35-3.74,1.06-5.43.71-1.69,1.69-3.16,2.94-4.42,1.25-1.26,2.73-2.24,4.44-2.96,1.71-.71,3.59-1.06,5.63-1.06,1.37,0,2.62.13,3.74.4,1.12.27,2.14.65,3.07,1.14.93.5,1.76,1.09,2.51,1.77.75.69,1.42,1.43,2.01,2.25l-5.57,4.31c-.76-.96-1.6-1.72-2.52-2.29-.92-.56-2.02-.84-3.32-.84-.95,0-1.8.18-2.58.55-.78.37-1.44.87-2,1.51-.56.64-1,1.38-1.32,2.25-.32.86-.48,1.78-.48,2.74v.07c0,.99.16,1.93.48,2.8.32.88.75,1.64,1.32,2.27.56.64,1.22,1.14,2,1.51.77.36,1.63.55,2.58.55.68,0,1.31-.08,1.89-.23.57-.15,1.09-.37,1.56-.67.47-.29.92-.64,1.34-1.03s.83-.83,1.24-1.32l5.57,3.97c-.64.86-1.33,1.67-2.08,2.4-.75.74-1.6,1.37-2.56,1.91-.95.53-2.02.95-3.2,1.26s-2.51.46-3.99.46"/>
      <polygon class="cls-3" points="29.99 273.61 51.42 273.61 51.42 279.91 37.27 279.91 37.27 283.95 50.09 283.95 50.09 289.78 37.27 289.78 37.27 294.02 51.61 294.02 51.61 300.31 29.99 300.31 29.99 273.61"/>
      <polygon class="cls-3" points="55.43 273.61 62.34 273.61 73.35 287.72 73.35 273.61 80.64 273.61 80.64 300.31 74.14 300.31 62.71 285.66 62.71 300.31 55.43 300.31 55.43 273.61"/>
      <polygon class="cls-3" points="91.88 280.1 83.87 280.1 83.87 273.61 107.29 273.61 107.29 280.1 99.28 280.1 99.28 300.31 91.88 300.31 91.88 280.1"/>
      <path class="cls-3" d="m110.53,273.61h12.62c2.06,0,3.8.26,5.22.76,1.42.51,2.58,1.22,3.47,2.14,1.58,1.52,2.36,3.6,2.36,6.21v.08c0,2.06-.5,3.76-1.49,5.11-1,1.35-2.33,2.38-4.01,3.09l6.37,9.31h-8.54l-5.38-8.08h-3.24v8.08h-7.39v-26.7Zm12.28,12.81c1.27,0,2.25-.29,2.94-.86s1.03-1.34,1.03-2.31v-.08c0-1.07-.35-1.86-1.07-2.38-.71-.52-1.69-.78-2.94-.78h-4.84v6.4h4.88Z"/>
      <path class="cls-3" d="m151.38,300.84c-2.06,0-3.97-.36-5.72-1.09-1.75-.72-3.27-1.71-4.54-2.96-1.27-1.25-2.27-2.7-2.99-4.38-.72-1.68-1.09-3.47-1.09-5.38v-.08c0-1.91.37-3.7,1.09-5.39s1.73-3.17,3.03-4.42c1.3-1.26,2.82-2.25,4.58-2.98,1.75-.72,3.66-1.09,5.72-1.09s3.97.36,5.72,1.09c1.75.72,3.27,1.71,4.54,2.96,1.27,1.25,2.27,2.71,3,4.38.72,1.68,1.08,3.47,1.08,5.38v.07c0,1.91-.36,3.7-1.08,5.4-.72,1.69-1.73,3.16-3.04,4.42-1.3,1.26-2.82,2.25-4.57,2.98-1.76.72-3.67,1.09-5.72,1.09m.05-6.68c1.02,0,1.95-.19,2.79-.57.84-.38,1.55-.9,2.14-1.54.59-.65,1.05-1.41,1.38-2.27.33-.87.5-1.78.5-2.74v-.08c0-.97-.17-1.88-.5-2.74-.33-.86-.8-1.63-1.41-2.29-.61-.66-1.34-1.19-2.18-1.58-.84-.39-1.77-.59-2.79-.59s-1.94.19-2.77.57c-.83.38-1.54.9-2.14,1.55-.6.65-1.06,1.4-1.37,2.27-.32.87-.48,1.78-.48,2.75v.07c0,.97.16,1.88.49,2.74.33.87.8,1.63,1.4,2.29.6.66,1.32,1.19,2.16,1.58.84.39,1.77.59,2.79.59"/>
      <path class="cls-3" d="m189.43,273.42h7.13l11.36,26.88h-7.93l-1.95-4.77h-10.29l-1.91,4.77h-7.78l11.37-26.88Zm6.48,16.4l-2.98-7.59-3.01,7.59h5.99Z"/>
      <path class="cls-3" d="m222.54,300.8c-1.91,0-3.62-.24-5.15-.72-1.53-.48-2.82-1.23-3.89-2.23-1.07-1.01-1.89-2.28-2.46-3.81-.57-1.54-.86-3.35-.86-5.43v-14.99h7.55v14.83c0,1.93.44,3.36,1.32,4.29.89.93,2.07,1.39,3.56,1.39s2.68-.44,3.56-1.34c.89-.89,1.33-2.27,1.33-4.15v-15.03h7.55v14.79c0,2.16-.3,4.03-.9,5.59-.6,1.57-1.44,2.85-2.52,3.85-1.08,1-2.39,1.75-3.93,2.23-1.54.48-3.26.72-5.17.72"/>
      <polygon class="cls-3" points="245.95 280.1 237.95 280.1 237.95 273.61 261.36 273.61 261.36 280.1 253.35 280.1 253.35 300.31 245.95 300.31 245.95 280.1"/>
      <path class="cls-3" d="m278.02,300.84c-2.06,0-3.97-.36-5.72-1.09-1.75-.72-3.27-1.71-4.54-2.96-1.27-1.25-2.27-2.7-2.99-4.38-.73-1.68-1.09-3.47-1.09-5.38v-.08c0-1.91.36-3.7,1.09-5.39.72-1.69,1.73-3.17,3.03-4.42,1.3-1.26,2.82-2.25,4.58-2.98,1.75-.72,3.66-1.09,5.72-1.09s3.97.36,5.72,1.09c1.75.72,3.27,1.71,4.54,2.96,1.27,1.25,2.27,2.71,3,4.38.72,1.68,1.08,3.47,1.08,5.38v.07c0,1.91-.36,3.7-1.08,5.4-.72,1.69-1.73,3.16-3.04,4.42-1.3,1.26-2.82,2.25-4.58,2.98-1.75.72-3.66,1.09-5.72,1.09m.06-6.68c1.02,0,1.95-.19,2.79-.57.84-.38,1.55-.9,2.14-1.54.59-.65,1.05-1.41,1.38-2.27.33-.87.5-1.78.5-2.74v-.08c0-.97-.17-1.88-.5-2.74-.33-.86-.8-1.63-1.41-2.29-.62-.66-1.34-1.19-2.18-1.58-.84-.39-1.77-.59-2.79-.59s-1.94.19-2.77.57c-.83.38-1.54.9-2.14,1.55-.6.65-1.06,1.4-1.37,2.27-.32.87-.48,1.78-.48,2.75v.07c0,.97.17,1.88.5,2.74.33.87.8,1.63,1.4,2.29.6.66,1.32,1.19,2.16,1.58.84.39,1.77.59,2.79.59"/>
      <polygon class="cls-3" points="296.29 273.61 304.11 273.61 310.48 283.95 316.85 273.61 324.66 273.61 324.66 300.31 317.3 300.31 317.3 284.98 310.5 295.42 310.35 295.42 303.58 285.05 303.58 300.31 296.29 300.31 296.29 273.61"/>
      <path class="cls-3" d="m342.82,300.84c-2.06,0-3.97-.36-5.72-1.09-1.75-.72-3.27-1.71-4.54-2.96-1.27-1.25-2.27-2.7-2.99-4.38-.72-1.68-1.09-3.47-1.09-5.38v-.08c0-1.91.37-3.7,1.09-5.39s1.73-3.17,3.03-4.42c1.3-1.26,2.82-2.25,4.58-2.98,1.75-.72,3.66-1.09,5.72-1.09s3.97.36,5.72,1.09c1.75.72,3.27,1.71,4.54,2.96,1.27,1.25,2.27,2.71,3,4.38.72,1.68,1.08,3.47,1.08,5.38v.07c0,1.91-.36,3.7-1.08,5.4-.72,1.69-1.73,3.16-3.04,4.42-1.3,1.26-2.82,2.25-4.57,2.98-1.76.72-3.67,1.09-5.72,1.09m.05-6.68c1.02,0,1.95-.19,2.79-.57.84-.38,1.55-.9,2.14-1.54.59-.65,1.05-1.41,1.38-2.27.33-.87.5-1.78.5-2.74v-.08c0-.97-.17-1.88-.5-2.74-.33-.86-.8-1.63-1.41-2.29-.61-.66-1.34-1.19-2.18-1.58-.84-.39-1.77-.59-2.79-.59s-1.94.19-2.77.57c-.83.38-1.54.9-2.14,1.55-.6.65-1.06,1.4-1.37,2.27-.32.87-.48,1.78-.48,2.75v.07c0,.97.16,1.88.49,2.74.33.87.8,1.63,1.4,2.29.6.66,1.32,1.19,2.16,1.58.84.39,1.77.59,2.79.59"/>
      <polygon class="cls-3" points="367.61 280.1 359.6 280.1 359.6 273.61 383.01 273.61 383.01 280.1 375.01 280.1 375.01 300.31 367.61 300.31 367.61 280.1"/>
      <path class="cls-3" d="m386.25,273.61h12.63c2.05,0,3.8.26,5.22.76,1.42.51,2.58,1.22,3.47,2.14,1.58,1.52,2.37,3.6,2.37,6.21v.08c0,2.06-.5,3.76-1.49,5.11-.99,1.35-2.33,2.38-4,3.09l6.37,9.31h-8.55l-5.37-8.08h-3.24v8.08h-7.4v-26.7Zm12.28,12.81c1.27,0,2.25-.29,2.94-.86s1.03-1.34,1.03-2.31v-.08c0-1.07-.35-1.86-1.07-2.38-.71-.52-1.69-.78-2.94-.78h-4.84v6.4h4.88Z"/>
      <rect class="cls-3" x="413.83" y="273.62" width="7.43" height="26.69"/>
      <polygon class="cls-3" points="425.31 294.93 438.69 279.87 425.76 279.87 425.76 273.61 448.92 273.61 448.92 278.99 435.53 294.05 448.92 294.05 448.92 300.31 425.31 300.31 425.31 294.93"/>
      <path class="cls-3" d="m463.33,273.61h12.62c2.06,0,3.8.26,5.23.76,1.42.51,2.58,1.22,3.47,2.14,1.58,1.52,2.36,3.6,2.36,6.21v.08c0,2.06-.49,3.76-1.49,5.11-.99,1.35-2.33,2.38-4,3.09l6.37,9.31h-8.55l-5.37-8.08h-3.24v8.08h-7.4v-26.7Zm12.28,12.81c1.27,0,2.25-.29,2.94-.86s1.03-1.34,1.03-2.31v-.08c0-1.07-.35-1.86-1.07-2.38-.71-.52-1.69-.78-2.94-.78h-4.84v6.4h4.88Z"/>
      <polygon class="cls-3" points="490.75 273.61 512.18 273.61 512.18 279.91 498.03 279.91 498.03 283.95 510.85 283.95 510.85 289.78 498.03 289.78 498.03 294.02 512.37 294.02 512.37 300.31 490.75 300.31 490.75 273.61"/>
      <path class="cls-3" d="m525.41,273.42h7.13l11.36,26.88h-7.93l-1.95-4.77h-10.29l-1.91,4.77h-7.78l11.37-26.88Zm6.48,16.4l-2.98-7.59-3.01,7.59h5.99Z"/>
      <path class="cls-3" d="m556.99,300.77c-2.39,0-4.66-.37-6.81-1.11-2.15-.74-4.04-1.85-5.7-3.34l4.12-4.93c2.67,2.13,5.55,3.2,8.66,3.2.99,0,1.75-.16,2.27-.47.52-.32.78-.77.78-1.35v-.08c0-.28-.06-.52-.19-.74s-.36-.42-.71-.63c-.34-.21-.8-.4-1.37-.59-.57-.19-1.32-.39-2.23-.59-1.42-.33-2.74-.69-3.97-1.08-1.22-.39-2.28-.9-3.18-1.52-.91-.63-1.62-1.4-2.14-2.33-.52-.93-.78-2.07-.78-3.44v-.07c0-1.25.23-2.39.7-3.43.47-1.04,1.15-1.94,2.06-2.7.9-.76,1.99-1.35,3.26-1.77,1.28-.42,2.71-.63,4.31-.63,2.29,0,4.33.3,6.12.9,1.79.6,3.41,1.49,4.86,2.67l-3.7,5.24c-1.22-.87-2.47-1.52-3.76-1.97-1.28-.44-2.52-.67-3.71-.67-.89,0-1.56.16-2.01.49-.44.33-.67.73-.67,1.22v.08c0,.31.07.57.21.8.14.23.38.44.72.63.34.19.81.38,1.41.57.6.19,1.35.38,2.27.59,1.53.33,2.91.72,4.14,1.16s2.28.98,3.15,1.62c.86.64,1.52,1.4,1.98,2.31.46.9.69,1.97.69,3.22v.07c0,1.37-.26,2.59-.78,3.66-.52,1.06-1.26,1.98-2.19,2.72-.94.75-2.07,1.32-3.39,1.71-1.32.39-2.8.59-4.42.59"/>
      <path class="cls-3" d="m580.59,273.42h7.13l11.36,26.88h-7.93l-1.95-4.77h-10.29l-1.91,4.77h-7.78l11.37-26.88Zm6.48,16.4l-2.98-7.59-3.01,7.59h5.99Z"/>
      <path class="cls-2" d="m538,154.59c14.91-6.33,26.78-15.48,35.6-27.46,8.81-11.98,13.22-27.12,13.22-45.42v-.68c0-23.27-7.01-41.7-21.02-55.26-7.91-8.13-18.19-14.46-30.85-18.99-12.66-4.52-28.14-6.78-46.44-6.78h-129.88l24.08,56.95h102.42c11.07,0,19.78,2.32,26.11,6.95,6.33,4.64,9.49,11.7,9.49,21.19v.67c0,8.59-3.05,15.43-9.15,20.51-6.1,5.09-14.8,7.63-26.11,7.63h-78.68l21.78,51.53h42.33l47.8,71.87h75.94l-56.61-82.72Z"/>
    </g>
  </g>
</svg>