<?xml version="1.0" encoding="UTF-8"?>
<svg id="Layer_2" data-name="Layer 2" xmlns="http://www.w3.org/2000/svg" viewBox="0 0 67.13 65.67">
  <defs>
    <style>
      .cls-1 {
        fill: #004e9b;
      }

      .cls-2 {
        fill: none;
        stroke: #004e9b;
        stroke-linejoin: round;
        stroke-width: 3.13px;
      }
    </style>
  </defs>
  <g id="Layer_1-2" data-name="Layer 1">
    <g>
      <path class="cls-2" d="m1.56,62.39c0-13.82,0-27.64,0-41.46.03.05.06.13.1.14.11.02.09-.08.09-.14.07-.78.51-1.33,1.1-1.79.23-.18.49-.33.74-.48,1.62-.95,3.25-1.9,4.87-2.85,6.53-3.83,13.06-7.67,19.6-11.49,1.42-.83,2.8-1.72,4.28-2.46.8-.4,1.63-.37,2.44,0,.58.26,1.12.62,1.67.94,5.47,3.21,10.95,6.41,16.42,9.62,3.5,2.05,7.01,4.1,10.51,6.16.5.29,1.01.58,1.4,1.02.61.71.78,1.55.78,2.45,0,13.29,0,26.57,0,39.86,0,.07,0,.14,0,.21-.15,1.02-.62,1.84-1.85,1.93-.97.07-1.94.03-2.91.03-1.43,0-2.11-.6-2.32-2.01-.03-.17-.02-.35-.02-.53,0-11.26,0-22.52,0-33.78,0-.52-.16-.7-.68-.76-.14-.01-.28-.01-.43-.01-15.07,0-30.15,0-45.22,0-.88,0-1.75-.01-2.63,0-.67.02-.82.19-.82.86,0,11.24,0,22.47,0,33.71,0,.43-.05.85-.2,1.25-.27.7-.77,1.14-1.53,1.21-1.22.11-2.44.11-3.66,0-.76-.06-1.29-.47-1.54-1.22-.05-.14-.08-.3-.19-.42Z"/>
      <path class="cls-1" d="m33.55,57.01c-3.88,0-7.75,0-11.63,0-.21,0-.29.07-.29.29,0,.66.07,1.33-.08,1.98-.31,1.34-1.49,2.33-2.86,2.41-.65.04-1.31.08-1.95-.05-1.51-.31-2.48-1.53-2.51-3.18-.03-1.72-.01-3.44,0-5.16,0-1.58-.07-3.15.13-4.72.21-1.64.47-3.28,1.06-4.84.12-.3.09-.44-.24-.58-.7-.29-1.28-.74-1.66-1.44-.86-1.59.02-3.37,1.81-3.6.54-.07,1.05.14,1.56.26.67.16.55.25.82-.42.4-.97.79-1.95,1.2-2.92,1.08-2.58,3.08-3.93,5.8-4.3.52-.07,1.04-.07,1.56-.07,5.03,0,10.05,0,15.08,0,2.1,0,3.95.68,5.46,2.19.69.69,1.12,1.54,1.48,2.44.4,1,.81,1.99,1.22,2.99.08.19.16.27.39.19.45-.14.91-.26,1.38-.33,1.72-.29,3.12,1.46,2.52,3.12-.34.95-1.01,1.55-1.93,1.91-.25.1-.3.2-.22.44.56,1.58.86,3.22,1.08,4.88.09.7.14,1.42.14,2.13.02,2.55,0,5.1.01,7.64,0,1.73-.91,3.03-2.49,3.34-.99.19-2.04.27-3.01-.16-1.14-.5-1.81-1.38-1.9-2.65-.03-.48-.05-.97-.04-1.46,0-.28-.1-.33-.35-.32-3.85,0-7.7,0-11.56,0,0,0,0,0,0-.01Zm-.03-13.35s0-.02,0-.02c3.72,0,7.44,0,11.16,0,.5,0,1,.03,1.49,0,1.43-.07,2.06-1.02,1.55-2.35-.28-.73-.58-1.45-.87-2.17-.59-1.43-1.13-2.89-1.79-4.28-.63-1.31-1.73-2.15-3.22-2.16-5.52-.04-11.04-.01-16.56-.01-.18,0-.35,0-.53.04-1.39.37-2.36,1.2-2.91,2.54-.49,1.19-.98,2.38-1.46,3.58-.35.89-.78,1.75-1.07,2.67-.32,1.03.13,1.88,1.13,2.1.34.07.71.07,1.06.07,4,0,8.01,0,12.01,0Zm-11.14,9.15c.89-.06,1.78.08,2.66-.02.81-.09,1.24-.56,1.25-1.36.01-.66.01-1.33,0-1.99-.02-.81-.45-1.28-1.26-1.36-1.1-.11-2.2-.03-3.3-.04-.69,0-1.37-.06-2.06.03-.73.1-1.16.5-1.26,1.23-.11.72-.06,1.44,0,2.16.06.81.53,1.25,1.34,1.34.88.09,1.75-.06,2.63,0Zm22.39.01s0-.02,0-.03c.86,0,1.73.02,2.59,0,.68-.02,1.21-.51,1.24-1.18.04-.8.02-1.61-.04-2.41-.05-.62-.56-1.07-1.19-1.11-1.69-.1-3.39-.02-5.08-.04-.14,0-.28.03-.42.05-.68.12-1.05.57-1.05,1.25,0,.76,0,1.52,0,2.27,0,.52.31.93.8,1.09.31.1.63.11.95.11.73,0,1.47,0,2.2,0Z"/>
    </g>
  </g>
</svg>